<svg width="1440" height="700" viewBox="0 0 1440 700" fill="none" xmlns="http://www.w3.org/2000/svg">
<path d="M591.705 537C574.809 537 559.821 526.153 554.54 510.103L451.135 195.842C445.648 179.165 458.07 162 475.627 162C486.774 162 496.659 169.164 500.13 179.757L603.44 495.118C605.532 501.505 600.774 508.071 594.053 508.071C587.286 508.071 582.523 501.422 584.7 495.015L690.078 184.884C694.726 171.202 707.572 162 722.022 162C736.556 162 749.457 171.309 754.039 185.103L857.163 495.561C859.208 501.718 854.624 508.071 848.136 508.071C841.647 508.071 837.063 501.718 839.108 495.561L944.489 178.309C947.723 168.571 956.83 162 967.091 162C983.308 162 994.783 177.856 989.714 193.26L885.288 510.626C880.11 526.364 865.413 537 848.845 537C832.356 537 817.711 526.463 812.47 510.829L715.933 222.851C714.822 219.536 717.289 216.107 720.785 216.107C724.285 216.107 726.753 219.542 725.635 222.859L628.784 510.365C623.423 526.281 608.501 537 591.705 537Z" fill="url(#paint0_linear_428_27)"/>
<defs>
<linearGradient id="paint0_linear_428_27" x1="440" y1="162" x2="1027.91" y2="212.569" gradientUnits="userSpaceOnUse">
<stop stop-color="#CC00FF"/>
<stop offset="1" stop-color="#00E0FF"/>
</linearGradient>
</defs>
</svg>
