<svg width="40" height="40" viewBox="0 0 40 40" fill="none" xmlns="http://www.w3.org/2000/svg">
<path d="M20 27C16.141 27 13 23.86 13 20C13 16.14 16.141 13 20 13C23.859 13 27 16.14 27 20C27 23.86 23.859 27 20 27ZM20 15C17.243 15 15 17.243 15 20C15 22.757 17.243 25 20 25C22.757 25 25 22.757 25 20C25 17.243 22.757 15 20 15Z" fill="white"/>
<path d="M27.5 14C28.3284 14 29 13.3284 29 12.5C29 11.6716 28.3284 11 27.5 11C26.6716 11 26 11.6716 26 12.5C26 13.3284 26.6716 14 27.5 14Z" fill="white"/>
<path d="M26 33H14C10.141 33 7 29.86 7 26V14C7 10.14 10.141 7 14 7H26C29.859 7 33 10.14 33 14V26C33 29.86 29.859 33 26 33ZM14 9C11.243 9 9 11.243 9 14V26C9 28.757 11.243 31 14 31H26C28.757 31 31 28.757 31 26V14C31 11.243 28.757 9 26 9H14Z" fill="white"/>
</svg>
