<svg width="40" height="40" viewBox="0 0 40 40" fill="none" xmlns="http://www.w3.org/2000/svg">
<path d="M10.5305 19.1286C17.5205 16.0536 26.5655 12.3046 27.8145 11.7856C31.0895 10.4276 32.0945 10.6876 31.5935 13.6956C31.2335 15.8576 30.1955 23.0146 29.3675 27.4696C28.8765 30.1116 27.7745 30.4246 26.0425 29.2816C25.2095 28.7316 21.0045 25.9506 20.0915 25.2976C19.2585 24.7026 18.1095 23.9866 19.5505 22.5766C20.0635 22.0746 23.4245 18.8646 26.0435 16.3666C26.3865 16.0386 25.9555 15.4996 25.5595 15.7626C22.0295 18.1036 17.1355 21.3526 16.5125 21.7756C15.5715 22.4146 14.6675 22.7076 13.0455 22.2416C11.8195 21.8896 10.6225 21.4696 10.1565 21.3096C8.36155 20.6936 8.78755 19.8956 10.5305 19.1286Z" fill="white"/>
</svg>
